# xmcd CD database file
#
# Track frame offsets:
#	150
#	12817
#	22395
#	38305
#	50210
#	61257
#	71865
#	85340
#	97835
#	109042
#	119500
#	130792
#
# Disc length: 1887 seconds
#
# Revision: 1
# Processed by: cddbd v1.5.2PL0 Copyright (c) Steve Scherf et al.
# Submitted via: jetAudio 7
#
DISCID=9f075d0c
DTITLE=Boots Randolph - 36 All-Time Favorites  Disc 2
DYEAR=1900
DGENRE=Jazz
TTITLE0=Gentle On My Mind
TTITLE1=Desafinado
TTITLE2=Who Can I Turn To
TTITLE3=Raindrops Keep Falling On My Head
TTITLE4=The Look Of Love
TTITLE5=Snowbird
TTITLE6=Love Is Blue
TTITLE7=Release Me
TTITLE8=More
TTITLE9=You Don't Know Me
TTITLE10=Tenderly
TTITLE11=Rocky Top
EXTD=
EXTT0=
EXTT1=
EXTT2=
EXTT3=
EXTT4=
EXTT5=
EXTT6=
EXTT7=
EXTT8=
EXTT9=
EXTT10=
EXTT11=
PLAYORDER=
